<?xml version="1.0"?>

<svg version="1.1" id="Camada_2_00000103227478575760943210000009637474378165789364_" xmlns="http://www.w3.org/2000/svg" xmlns:xlink="http://www.w3.org/1999/xlink" x="0px" y="0px" viewBox="0 0 8192 4183.9" style="enable-background:new 0 0 8192 4183.9;" xml:space="preserve">


<g id="Camada_1-2">
&#x9;<path class="st0" d="M2395.7,2343.5c0,159.4-31.2,310.2-87.3,449.2c-0.9,1.7-1.1,2.8-1.6,4.3h-78.1c-6.5,0-11.8-1.1-18.3-1.1H2191&#xA;&#x9;&#x9;c-368.4-23.7-708.8-150.8-993.2-352.2c-0.7-0.7-1.4-1.1-2.2-1.1c-0.6-0.4-1.3-0.9-2-1.5c0.3-0.2,0.6-0.4,1-0.6&#xA;&#x9;&#x9;c2.2-1.1,3.2-2.2,5.4-3.2c2.2-1.1,4.3-3.2,6.5-4.3c2.2-2.2,5.4-3.2,7.5-5.4c204.7-147.6,379.2-333.9,513.8-548.3&#xA;&#x9;&#x9;c1.1-2.2,2.2-3.2,3.2-5.4c17.2-26.9,33.4-54.9,48.5-82.9c1.1-1.1,1.1-2.2,2.2-3.2c1.1,0,1.1-1.1,1.1-1.1&#xA;&#x9;&#x9;c65.7-118.5,118.5-243.4,158.3-374.9c1.1-2.2,1.1-4.3,2.2-6.5c25.9-88.3,46.3-179.9,60.3-273.6c1.1-4.3,1.1-7.5,2.2-11.8&#xA;&#x9;&#x9;c38.8,209,111,405,210.1,584.9c-1.1,0-1.1,1.1-2.2,1.1c0,1.1,1.1,1.1,1.1,2.2c16.2,25.9,31.2,51.7,45.2,78.6&#xA;&#x9;&#x9;c4.3,7.5,8.6,16.2,12.9,24.8C2352.6,1970.7,2397.8,2151.7,2395.7,2343.5L2395.7,2343.5z"></path>
&#x9;<path class="st1" d="M2307.3,2796.9c-10.8,28-22.6,54.9-36.6,84c-1.1,2.2-2.2,3.2-3.2,5.4c0,1.1-1.1,2.2-1.1,3.2&#xA;&#x9;&#x9;c-1.1,3.2-3.2,5.4-4.3,8.6c-148.7,279-317.8,388.9-317.8,388.9c-1.1-1.1-2.2-1.1-3.2-1.1c-437.3-85.1-823-316.7-1102-640.9&#xA;&#x9;&#x9;c0-0.5-0.2-1.1-0.6-1.6c-0.1-0.2-0.3-0.3-0.4-0.5l-1.1-1.1c-98-114.2-182-240.2-252.1-374.9c-67.9-131.4-120.6-272.5-157.3-419&#xA;&#x9;&#x9;c-24.8-99.1-42-200.4-50.6-303.8c-5.4,54.9-7.5,111-7.5,168c0,39.9,1.1,77.6,3.2,116.3c6.5,108.8,21.5,215.4,45.2,318.8&#xA;&#x9;&#x9;c46.3,202.5,123.9,392.1,227.3,564.4c1.1,1.1,1.1,2.2,2.2,3.2c103.9,172.3,233.5,326.9,383.4,458.8&#xA;&#x9;&#x9;c149.8,131.8,320,240.9,505.3,322.2c2.2,1.1,4.3,1.1,6.5,2.2h-1.1c-39.9,11.8-82.9,21.5-82.9,21.5c-31.2,7.5-62.5,12.9-94.8,17.2&#xA;&#x9;&#x9;c-15.1,2.2-30.2,4.3-45.2,5.4c-5.4,0-9.7,1.1-15.1,1.1s-9.7,1.1-15.1,1.1c-7.5,0-15.1,1.1-22.6,1.1c-7.5,0-15.1,1.1-22.6,1.1&#xA;&#x9;&#x9;h-108.8c-4.3-1.1-7.5-1.1-11.8-1.1h-10.8c-4.3,0-9.7-1.1-15.1-1.1c-4.3,0-9.7-1.1-15.1-1.1c-4.3,0-7.5-1.1-11.8-1.1&#xA;&#x9;&#x9;c-14-2.2-28-3.2-42-5.4c-6.5-1.1-14-2.2-20.5-3.2c-6.5-1.1-14-2.2-20.5-3.2c-16.2-3.2-31.2-6.5-47.4-9.7&#xA;&#x9;&#x9;c-6.5-1.1-11.8-3.2-18.3-4.3c-8.6-2.2-18.3-4.3-26.9-6.5c-8.6-3.2-17.2-5.4-25.9-7.5c-5.4-2.2-11.8-3.2-17.2-5.4&#xA;&#x9;&#x9;c-347.9-104.5-629.1-363-763.7-696.9C31.2,2661.2,0,2509.3,0,2351c0-100.7,12.4-198.5,35.7-291.8c23.4-93.3,57.5-182.2,101.1-265.1&#xA;&#x9;&#x9;c1.1,0,1.1-1.1,1.1-1.1c16.2-25.9,31.2-51.7,46.3-78.6c1.1-3.2,3.2-5.4,4.3-8.6c0,0,1.1-1.1,1.1-2.2&#xA;&#x9;&#x9;c82.9-150.8,146.5-315.6,186.4-488c6.5-28,12.9-57.1,18.3-86.2v-1.1c7.5,48.5,16.2,95.9,25.9,143.3c9.7,47.4,21.5,93.7,35.5,140&#xA;&#x9;&#x9;c50.6,168,121.7,325.3,212.2,470.7c134.7,215.4,310.2,403.9,517,552.6c2.6,1.7,5.9,4.2,8.7,6c0.8,0.6,1.4,1.1,2,1.5&#xA;&#x9;&#x9;c0.7,0,1.4,0.4,2.2,1.1c284.4,201.4,624.8,328.5,993.2,352.2h19.4c6.5,0,11.8,1.1,18.3,1.1L2307.3,2796.9L2307.3,2796.9z"></path>
&#x9;<path class="st2" d="M1682.6,1306.1c0,267.1-216.5,482.6-482.6,482.6s-482.6-216.5-482.6-482.6S1200,637.2,1200,637.2&#xA;&#x9;&#x9;S1682.6,1039,1682.6,1306.1z"></path>
&#x9;<path class="st3" d="M3040.9,1770.4h374.9l1.1,42c0,119.6-32.3,213.3-95.9,279c-64.6,65.7-153,99.1-267.1,99.1&#xA;&#x9;&#x9;c-114.2,0-200.4-34.5-269.3-103.4c-33.4-33.4-59.2-73.2-77.6-118.5c-18.3-46.3-26.9-93.7-26.9-143.3&#xA;&#x9;&#x9;c0-105.6,35.5-192.8,105.6-261.8c70-68.9,159.4-103.4,268.2-103.4c136.8,0,242.4,53.9,315.6,161.6l-165.9,79.7&#xA;&#x9;&#x9;c-38.8-53.9-89.4-79.7-149.7-79.7c-57.1,0-101.3,18.3-134.7,56c-33.4,37.7-49.5,89.4-49.5,157.3s16.2,118.5,49.5,157.3&#xA;&#x9;&#x9;c33.4,37.7,77.6,57.1,134.7,57.1c48.5,0,89.4-11.8,121.7-36.6c32.3-23.7,50.6-54.9,56-93.7H3042v-148.7L3040.9,1770.4&#xA;&#x9;&#x9;L3040.9,1770.4z"></path>
&#x9;<path class="st3" d="M3562.3,1475.2h211.1c60.3,0,103.4,2.2,129.3,5.4c40.9,6.5,74.3,20.5,101.3,40.9&#xA;&#x9;&#x9;c51.7,39.9,78.6,96.9,78.6,171.3c0,111-51.7,176.7-156.2,199.3l190.7,283.3h-158.3c-35.5,0-67.9-19.4-86.2-49.5l-131.4-225.1v274.7&#xA;&#x9;&#x9;h-178.8V1475.2L3562.3,1475.2z M3776.6,1804.9c78.6,0,118.5-29.1,118.5-86.2c0-35.5-9.7-60.3-26.9-75.4&#xA;&#x9;&#x9;c-18.3-14-47.4-21.5-88.3-21.5h-37.7v183.1L3776.6,1804.9L3776.6,1804.9z"></path>
&#x9;<path class="st3" d="M4137.5,1475.2h89.4l177.7,514.9l185.3-541.8l186.4,541.8l177.7-514.9h89.4l-271.5,727.1l-183.1-540.7&#xA;&#x9;&#x9;l-182,540.7L4137.5,1475.2L4137.5,1475.2z"></path>
&#x9;<path class="st3" d="M5355.8,1447.2l317.8,727.1h-90.5l-90.5-214.4H5219l-90.5,214.4H5038L5355.8,1447.2L5355.8,1447.2z&#xA;&#x9;&#x9; M5355.8,1631.4l-111,257.4h223L5355.8,1631.4L5355.8,1631.4z"></path>
&#x9;<path class="st3" d="M5843.7,2175.4v-620.5h-198.2v-79.7h478.3v79.7h-197.1v620.5H5843.7L5843.7,2175.4z"></path>
&#x9;<path class="st3" d="M6246.6,2175.4v-699.1H6615v76.5h-285.5v200.4H6615v77.6h-285.5v268.2H6615v77.6h-368.4V2175.4z"></path>
&#x9;<path class="st3" d="M6786.3,2175.4v-699.1h164.8c46.3,0,80.8,2.2,103.4,7.5c21.5,5.4,40.9,14,57.1,26.9&#xA;&#x9;&#x9;c20.5,16.2,36.6,37.7,48.5,65.7c11.8,26.9,17.2,57.1,17.2,90.5c0,57.1-16.2,101.3-48.5,130.3c-32.3,30.2-78.6,44.2-141.1,44.2&#xA;&#x9;&#x9;h-15.1l267.1,333.9h-105.6l-255.3-333.9h-11.8v333.9L6786.3,2175.4L6786.3,2175.4z M6867.1,1545.2V1779h63.6&#xA;&#x9;&#x9;c64.6,0,108.8-8.6,130.3-24.8c21.5-17.2,33.4-46.3,33.4-87.3c0-45.2-11.8-76.5-33.4-94.8c-22.6-18.3-65.7-26.9-129.3-26.9&#xA;&#x9;&#x9;L6867.1,1545.2L6867.1,1545.2z"></path>
&#x9;<path class="st3" d="M2972,2790.5c45.2,19.4,79.7,45.2,103.4,77.6c22.6,32.3,34.5,70,34.5,114.2c0,64.6-20.5,116.3-61.4,155.1&#xA;&#x9;&#x9;c-40.9,39.9-94.8,59.2-162.7,59.2c-54.9,0-101.3-14-139-42c-37.7-28-62.5-67.9-75.4-120.6l75.4-37.7c9.7,42,26.9,74.3,50.6,95.9&#xA;&#x9;&#x9;c23.7,21.5,52.8,32.3,88.3,32.3c42,0,75.4-11.8,101.3-35.5c25.9-23.7,38.8-54.9,38.8-93.7c0-31.2-8.6-58.2-26.9-81.9&#xA;&#x9;&#x9;c-18.3-22.6-45.2-43.1-81.9-58.2l-85.1-36.6c-46.3-19.4-80.8-44.2-103.4-75.4c-22.6-31.2-34.5-66.8-34.5-109.9&#xA;&#x9;&#x9;c0-49.5,18.3-90.5,54.9-122.8s84-48.5,141.1-48.5c42,0,78.6,8.6,108.8,26.9c31.2,18.3,54.9,44.2,72.2,78.6l-68.9,44.2&#xA;&#x9;&#x9;c-15.1-26.9-33.4-47.4-52.8-60.3c-19.4-12.9-40.9-19.4-65.7-19.4c-31.2,0-57.1,9.7-76.5,29.1c-19.4,19.4-30.2,43.1-30.2,73.2&#xA;&#x9;&#x9;c0,24.8,7.5,46.3,22.6,64.6c15.1,18.3,38.8,34.5,71.1,48.5L2972,2790.5L2972,2790.5z"></path>
&#x9;<path class="st3" d="M3965.1,2830.3c0,49.5-9.7,96.9-28,141.1c-18.3,44.2-45.2,84-80.8,118.5c-35.5,34.5-76.5,61.4-121.7,79.7&#xA;&#x9;&#x9;c-46.3,18.3-93.7,28-143.3,28s-96.9-9.7-142.2-28c-45.2-18.3-86.2-45.2-121.7-79.7c-35.5-34.5-62.5-74.3-81.9-118.5&#xA;&#x9;&#x9;c-18.3-44.2-28-91.6-28-141.1c0-49.5,9.7-96.9,28-142.2c18.3-44.2,46.3-84,81.9-118.5c35.5-34.5,75.4-60.3,121.7-78.6&#xA;&#x9;&#x9;c46.3-18.3,93.7-28,143.3-28s98,9.7,143.3,28c46.3,18.3,86.2,45.2,121.7,78.6c35.5,34.5,62.5,74.3,80.8,118.5&#xA;&#x9;&#x9;C3956.5,2733.4,3965.1,2780.8,3965.1,2830.3L3965.1,2830.3z M3591.3,3119c37.7,0,74.3-7.5,108.8-21.5c34.5-14,65.7-35.5,93.7-63.6&#xA;&#x9;&#x9;c26.9-26.9,48.5-58.2,62.5-92.6c14-34.5,21.5-71.1,21.5-109.9c0-38.8-7.5-76.5-21.5-112c-14-35.5-35.5-66.8-62.5-93.7&#xA;&#x9;&#x9;c-26.9-26.9-58.2-48.5-92.6-62.5c-34.5-14-71.1-21.5-109.9-21.5s-75.4,7.5-109.9,21.5c-34.5,14-65.7,35.5-92.6,62.5&#xA;&#x9;&#x9;c-26.9,28-48.5,59.2-62.5,93.7c-14,35.5-21.5,72.2-21.5,111c0,38.8,7.5,75.4,21.5,109.9c14,34.5,35.5,65.7,62.5,93.7&#xA;&#x9;&#x9;c28,28,59.2,49.5,93.7,63.6C3517,3112.6,3553.6,3119,3591.3,3119z"></path>
&#x9;<path class="st3" d="M4131,3179.3v-700.2h82.9v620.5h263.9v79.7H4131L4131,3179.3z"></path>
&#x9;<path class="st3" d="M4586.7,2479.2h84v435.2c0,71.1,15.1,122.8,45.2,156.2c30.2,33.4,77.6,49.5,142.2,49.5&#xA;&#x9;&#x9;c64.6,0,112-16.2,142.2-49.5c30.2-33.4,45.2-85.1,45.2-156.2v-435.2h85.1v435.2c0,94.8-22.6,165.9-67.9,212.2&#xA;&#x9;&#x9;c-45.2,47.4-113.1,70-203.6,70s-158.3-23.7-203.6-70c-45.2-47.4-67.9-117.4-67.9-212.2v-435.2H4586.7L4586.7,2479.2z"></path>
&#x9;<path class="st3" d="M5446.3,3179.3v-620.5H5248v-79.7h478.3v79.7h-197.1v620.5H5446.3z"></path>
&#x9;<path class="st3" d="M5850.2,3179.3v-700.2h82.9v700.2H5850.2L5850.2,3179.3z"></path>
&#x9;<path class="st3" d="M6846.6,2830.3c0,49.5-9.7,96.9-28,141.1c-18.3,44.2-45.2,84-80.8,118.5c-35.5,34.5-76.5,61.4-121.7,79.7&#xA;&#x9;&#x9;c-46.3,18.3-93.7,28-143.3,28c-49.6,0-96.9-9.7-142.2-28c-45.2-18.3-86.2-45.2-121.7-79.7s-62.5-74.3-81.9-118.5&#xA;&#x9;&#x9;c-18.3-44.2-28-91.6-28-141.1c0-49.5,9.7-96.9,28-142.2c18.3-44.2,46.3-84,81.9-118.5c35.5-34.5,75.4-60.3,121.7-78.6&#xA;&#x9;&#x9;c46.3-18.3,93.7-28,143.3-28s98,9.7,143.3,28c46.3,18.3,86.2,45.2,121.7,78.6c35.5,34.5,62.5,74.3,80.8,118.5&#xA;&#x9;&#x9;C6838,2733.4,6846.6,2780.8,6846.6,2830.3L6846.6,2830.3z M6472.8,3119c37.7,0,74.3-7.5,108.8-21.5c34.5-14,65.7-35.5,93.7-63.6&#xA;&#x9;&#x9;c26.9-26.9,48.5-58.2,62.5-92.6c14-34.5,21.5-71.1,21.5-109.9c0-38.8-7.5-76.5-21.5-112c-14-35.5-35.5-66.8-62.5-93.7&#xA;&#x9;&#x9;c-26.9-26.9-58.2-48.5-92.6-62.5c-34.5-14-71.1-21.5-109.9-21.5c-38.8,0-75.4,7.5-109.9,21.5c-34.5,14-65.7,35.5-92.6,62.5&#xA;&#x9;&#x9;c-26.9,28-48.5,59.2-62.5,93.7c-14,35.5-21.5,72.2-21.5,111c0,38.8,7.5,75.4,21.5,109.9c14,34.5,35.5,65.7,62.5,93.7&#xA;&#x9;&#x9;c28,28,59.2,49.5,93.7,63.6C6398.5,3112.6,6434,3119,6472.8,3119z"></path>
&#x9;<path class="st3" d="M7012.5,3179.3v-727.1l511.7,559.1v-532.1h79.7v727.1l-511.7-552.6v525.7L7012.5,3179.3L7012.5,3179.3z"></path>
&#x9;<path class="st3" d="M8054.1,2790.5c45.2,19.4,79.7,45.2,103.4,77.6c22.6,32.3,34.5,70,34.5,114.2c0,64.6-20.5,116.3-61.4,155.1&#xA;&#x9;&#x9;c-40.9,39.9-94.8,59.2-162.7,59.2c-54.9,0-101.3-14-139-42c-37.7-28-62.5-67.9-75.4-120.6l75.4-37.7c9.7,42,26.9,74.3,50.6,95.9&#xA;&#x9;&#x9;c23.7,21.5,52.8,32.3,88.3,32.3c42,0,75.4-11.8,101.3-35.5c25.9-23.7,38.8-54.9,38.8-93.7c0-31.2-8.6-58.2-26.9-81.9&#xA;&#x9;&#x9;c-18.3-22.6-45.2-43.1-81.9-58.2l-85.1-36.6c-46.3-19.4-80.8-44.2-103.4-75.4c-22.6-30.2-34.5-66.8-34.5-109.9&#xA;&#x9;&#x9;c0-49.5,18.3-90.5,54.9-122.8s84-48.5,141.1-48.5c42,0,78.6,8.6,108.8,26.9c31.2,18.3,54.9,44.2,72.2,78.6l-68.9,44.2&#xA;&#x9;&#x9;c-16.2-26.9-33.4-47.4-52.8-60.3c-19.4-12.9-40.9-19.4-65.7-19.4c-31.2,0-57.1,9.7-76.5,29.1c-19.4,19.4-30.2,43.1-30.2,73.2&#xA;&#x9;&#x9;c0,24.8,7.5,46.3,22.6,64.6s38.8,34.5,71.1,48.5L8054.1,2790.5L8054.1,2790.5z"></path>
</g>
</svg>